<svg id="visual" viewBox="0 0 900 600" width="900" height="600" xmlns="http://www.w3.org/2000/svg" xmlns:xlink="http://www.w3.org/1999/xlink" version="1.1"><rect x="0" y="0" width="900" height="600" fill="#FFFFFF"></rect><path d="M0 354L21.5 364.3C43 374.7 86 395.3 128.8 400C171.7 404.7 214.3 393.3 257.2 396.5C300 399.7 343 417.3 385.8 413.8C428.7 410.3 471.3 385.7 514.2 382.3C557 379 600 397 642.8 404.2C685.7 411.3 728.3 407.7 771.2 403C814 398.3 857 392.7 878.5 389.8L900 387L900 601L878.5 601C857 601 814 601 771.2 601C728.3 601 685.7 601 642.8 601C600 601 557 601 514.2 601C471.3 601 428.7 601 385.8 601C343 601 300 601 257.2 601C214.3 601 171.7 601 128.8 601C86 601 43 601 21.5 601L0 601Z" fill="#f7caca"></path><path d="M0 403L21.5 405.7C43 408.3 86 413.7 128.8 424.7C171.7 435.7 214.3 452.3 257.2 458.8C300 465.3 343 461.7 385.8 460.2C428.7 458.7 471.3 459.3 514.2 459.2C557 459 600 458 642.8 457.3C685.7 456.7 728.3 456.3 771.2 447.8C814 439.3 857 422.7 878.5 414.3L900 406L900 601L878.5 601C857 601 814 601 771.2 601C728.3 601 685.7 601 642.8 601C600 601 557 601 514.2 601C471.3 601 428.7 601 385.8 601C343 601 300 601 257.2 601C214.3 601 171.7 601 128.8 601C86 601 43 601 21.5 601L0 601Z" fill="#efa5ab"></path><path d="M0 499L21.5 497.5C43 496 86 493 128.8 493C171.7 493 214.3 496 257.2 491C300 486 343 473 385.8 472.8C428.7 472.7 471.3 485.3 514.2 482C557 478.7 600 459.3 642.8 461C685.7 462.7 728.3 485.3 771.2 485.7C814 486 857 464 878.5 453L900 442L900 601L878.5 601C857 601 814 601 771.2 601C728.3 601 685.7 601 642.8 601C600 601 557 601 514.2 601C471.3 601 428.7 601 385.8 601C343 601 300 601 257.2 601C214.3 601 171.7 601 128.8 601C86 601 43 601 21.5 601L0 601Z" fill="#e48091"></path><path d="M0 526L21.5 527.7C43 529.3 86 532.7 128.8 526.3C171.7 520 214.3 504 257.2 502.7C300 501.3 343 514.7 385.8 521.8C428.7 529 471.3 530 514.2 522.5C557 515 600 499 642.8 492.3C685.7 485.7 728.3 488.3 771.2 498.2C814 508 857 525 878.5 533.5L900 542L900 601L878.5 601C857 601 814 601 771.2 601C728.3 601 685.7 601 642.8 601C600 601 557 601 514.2 601C471.3 601 428.7 601 385.8 601C343 601 300 601 257.2 601C214.3 601 171.7 601 128.8 601C86 601 43 601 21.5 601L0 601Z" fill="#d6587b"></path><path d="M0 541L21.5 540.8C43 540.7 86 540.3 128.8 541.3C171.7 542.3 214.3 544.7 257.2 543C300 541.3 343 535.7 385.8 538.7C428.7 541.7 471.3 553.3 514.2 555.3C557 557.3 600 549.7 642.8 546.3C685.7 543 728.3 544 771.2 544.2C814 544.3 857 543.7 878.5 543.3L900 543L900 601L878.5 601C857 601 814 601 771.2 601C728.3 601 685.7 601 642.8 601C600 601 557 601 514.2 601C471.3 601 428.7 601 385.8 601C343 601 300 601 257.2 601C214.3 601 171.7 601 128.8 601C86 601 43 601 21.5 601L0 601Z" fill="#c62368"></path></svg>